# xmcd
#
# Track frame offsets: 
#        150
#        20102
#        39526
#        60777
#        90338
#        108397
#        127194
#        149847
#        172373
#        192515
#        211753
#        230930
#        253769
#        276556
#        296847
#        316074
#
# Disc length: 4410 seconds
#
# Revision: 0
# Processed by: cddbd v1.5.2PL0 Copyright (c) Steve Scherf et al.
# Submitted via: ExactAudioCopyFreeDBPlugin 1.0
#
DISCID=04113810
DTITLE=群星 - DTS 情歌试音王No3
DYEAR=2010
DGENRE=Acid
TTITLE0=爱情错觉
TTITLE1=故乡在他乡
TTITLE2=放开手就让她走
TTITLE3=爱上负心的人
TTITLE4=无路可退
TTITLE5=我把自己的爱情丢了
TTITLE6=这一生回忆有你就足够
TTITLE7=爱情里没有谁对谁错
TTITLE8=一定要爱你
TTITLE9=哭泣的玫瑰
TTITLE10=不是因为寂寞才想你
TTITLE11=谁是爱情里的主角
TTITLE12=高原蓝
TTITLE13=听着情歌流眼泪
TTITLE14=假如爱能重来过
TTITLE15=犯错
EXTD=
EXTT0=
EXTT1=
EXTT2=
EXTT3=
EXTT4=
EXTT5=
EXTT6=
EXTT7=
EXTT8=
EXTT9=
EXTT10=
EXTT11=
EXTT12=
EXTT13=
EXTT14=
EXTT15=
PLAYORDER=
